<?xml version="1.0" encoding="UTF-8"?>
<svg id="Layer_4" data-name="Layer 4" xmlns="http://www.w3.org/2000/svg" viewBox="0 0 99.13 95.8">
  <defs>
    <style>
      .cls-1 {
        fill: #231f20;
      }
    </style>
  </defs>
  <path class="cls-1" d="M1.77,81.95c10.69-.08,21.37-.16,32.06-.24l38.61-.29c5.28-.04,10.57-.08,15.85-.12l-1.34-.7c-.03-.39.04-.24-.02.04-.07.32-.12.62-.22.93-.03.1-.08.2-.11.31-.07.21.17-.31-.04.08-.14.25-.27.5-.42.74-.18.29-.39.55-.59.82-.3.4.15-.14-.16.18-.15.15-.29.3-.43.45-.35.34-.72.66-1.09.97-.42.35.18-.11-.29.22-.25.18-.5.35-.76.52-.53.35-1.09.67-1.64.98-.43.24.19-.09-.16.08-.15.08-.3.15-.45.22-.37.18-.75.35-1.13.52-1.88.83-2.94,1.18-4.8,1.73-2.22.65-4.49,1.19-6.76,1.61-6.67,1.24-13.48,1.82-20.25,2.08-6.79.27-13.65.22-20.4-.62-4.18-.52-8.47-1.36-12.37-2.89-2.48-.97-4.93-2.27-6.72-3.87-.67-.6-1.3-1.26-1.84-1.99-.21-.29-.41-.59-.6-.89-.2-.33.04.11-.11-.2-.07-.14-.14-.28-.21-.42-.3-.66-.35-1.36-.59-2.02,0-.03,0-.07,0-.1-.03-1.45-4.38-.58-4.35,1.16.04,1.98,1.54,4.03,2.83,5.38,4.71,4.94,12.2,6.84,18.68,7.91s13.11,1.35,19.68,1.25c7.62-.11,15.28-.59,22.81-1.76s16.69-3.02,23.02-8.17c1.64-1.33,3.9-3.68,3.85-6.01,0-.13,0-.27,0-.4-.04-.53-.96-.71-1.34-.7-11.39.09-22.77.17-34.16.26-13.13.1-26.27.2-39.4.3-4.32.03-8.64.07-12.96.1-.95,0-2.36.29-2.86,1.21-.48.87.41,1.37,1.2,1.36Z"/>
  <path class="cls-1" d="M43.44,68.22c.19.29,0,0-.1-.16-.22-.37-.43-.75-.64-1.13-.65-1.21-1.24-2.46-1.76-3.73-1.55-3.78-2.56-7.85-2.58-11.96-.02-4.96,1.7-9.85,5.04-13.54,2.66-2.93,6.31-4.57,10.08-5.09,2.81-.38,5.52-.26,8.31.3.24.05.52.13.27.06.12.03.24.06.35.11.16.06.31.14.47.2.61.27,1.22.54,1.81.85,5.34,2.78,8.54,8.1,8.45,14.22-.06,3.92-1.27,7.51-3.07,10.95-2.04,3.89-5.03,8.19-9.24,9.91-.53.21-1.78.85-1.21,1.57.54.67,2.26.18,2.85-.06,4.54-1.84,7.98-5.44,10.52-9.55,1.82-2.96,3.41-6.17,4.06-9.61.8-4.21.63-8.74-1.52-12.54-1.42-2.52-3.48-4.54-5.94-6.05-1.21-.74-2.54-1.48-3.9-1.91-2.77-.89-5.98-.98-8.86-.81-4.81.28-9.59,1.55-13.63,4.24-4.36,2.91-7.5,7.52-8.65,12.64-1.72,7.61.63,16.27,4.82,22.75.69,1.06,4.92-.29,4.06-1.63h0Z"/>
  <path class="cls-1" d="M9.22,74.07c-2.49-6.91-1.49-15.45,1.61-21.95,2.78-5.82,7.37-10.98,13.08-14.04,4-2.15,8.75-3.24,13.01-3.3,1.78-.03,3.57.08,5.33.33-.52-.07.34.06.49.09.21.04.42.08.63.12.17.04.35.07.52.12.99.26,2.36-.07,3.07-.82.64-.68.48-1.48-.46-1.72-7.18-1.88-15.57-.75-22.29,2.15-12.11,5.23-20.7,17.64-20.68,30.91,0,3.08.28,6.37,1.33,9.29.6,1.67,4.92.43,4.35-1.16h0Z"/>
  <path class="cls-1" d="M74.01,45.65c-.75-.24-.17-.06.04.03.36.16.72.32,1.07.51,1.26.67,1.99,1.19,3.03,2.17,3.3,3.08,4.89,7.38,5.19,11.82s-.56,8.48-1.76,12.51c-.46,1.55,3.9.96,4.35-.54,1.9-6.36,2.93-13.73.13-20-1.49-3.33-3.95-6.11-7.13-7.9-.72-.41-1.47-.74-2.26-.99-.93-.3-2.39.15-3.07.82s-.46,1.29.42,1.56h0Z"/>
  <path class="cls-1" d="M21.44,5.93c.83,1.07,1.57,2.22,2.23,3.4,1.13,1.98,2.25,4.27,2.21,6.6s-1,4.51-1.92,6.52c-.55,1.2-1.16,2.39-1.84,3.53-.42.69,1.55.48,1.75.45.8-.14,2.08-.43,2.54-1.2,1.82-3.02,3.65-6.66,3.81-10.24.11-2.33-.97-4.62-2.08-6.61-.7-1.25-1.48-2.48-2.36-3.62-.82-1.06-4.69.71-4.35,1.16h0Z"/>
  <path class="cls-1" d="M1.97,2.72c2.69,1.6,4.6,4.63,4.88,7.73.34,3.69-1.8,6.61-2.95,9.94-.83,2.41-1.34,5.15-.75,7.68.23,1.01.67,2.13,1.41,2.88.86.86,4.9-.72,4.08-1.54-.46-.46-.85-1.4-1.08-2.24-.66-2.48-.18-5.1.64-7.48,1.14-3.33,3.14-6.18,3.02-9.84-.08-2.3-1.01-4.42-2.44-6.2-.76-.94-1.69-1.85-2.74-2.48-.8-.47-2.02-.14-2.82.17-.24.09-1.99.94-1.26,1.38h0Z"/>
  <path class="cls-1" d="M67.48,31.04c-.02-.26-.02.42,0,.07.02-.23.02-.46.05-.69.08-.7.26-1.4.52-2.05,1.13-2.75,3.46-4.66,5.97-6.12.73-.42,1.16-1.43.31-1.97-2.66-1.68-4.72-4.36-4.88-7.61-.06-1.19.17-2.47.73-3.53s1.12-1.48,1.82-1.79c2.06-.91,4.57-.7,6.36.96,2.43,2.24,2.54,5.74,1.88,8.76-.35,1.6,2.4,1.12,3.1.87,2.33-.87,5.02-1.25,7.2.2,1.65,1.09,2.57,2.98,2.83,4.9s-.35,3.96-1.89,5.32c-.76.67-1.21.83-2.26.62-1.88-.37-3.48-1.77-4.79-3.09-1.03-1.05-3.35-.43-4.05.76-1.44,2.44-3.33,4.56-5.69,6.14-.87.58-1.09.71-1.91,1.1-.3.14-1.59.61-.49.24-.75.25-2.08.85-1.83,1.87.23.95,1.83.93,2.52.7,4.85-1.63,8.94-5.42,11.51-9.77l-4.05.76c2.7,2.73,6.12,4.77,10.09,4,3.01-.59,5.66-2.76,6.78-5.63,1.58-4.06-.46-9.04-4.44-10.81-3.65-1.63-7.73-.82-11.34.52l3.1.87c.68-3.11.55-6.52-1.39-9.17-1.65-2.25-4.44-3.42-7.18-3.49-3-.07-6.51.86-8.65,3.07-1.82,1.87-2.5,4.5-2.26,7.05.34,3.64,2.8,6.59,5.8,8.48l.31-1.97c-3.89,2.27-8.58,6.56-8.1,11.59.16,1.7,4.52.71,4.35-1.16h0Z"/>
</svg>