<?xml version="1.0" encoding="UTF-8"?>
<svg id="Layer_1" data-name="Layer 1" xmlns="http://www.w3.org/2000/svg" viewBox="0 0 79.17 79.17">
  <defs>
    <style>
      .cls-1 {
        fill: #e7e6e1;
      }
    </style>
  </defs>
  <circle class="cls-1" cx="39.58" cy="39.58" r="39.58"/>
  <path d="M22.4,65.31c-1.4,0-2.73-.58-4.02-1.73-1.29-1.15-2.36-2.82-3.23-5s-1.37-4.82-1.52-7.91c-.94.09-1.81.14-2.59.14-1.76,0-3.04-.23-3.84-.68-.81-.45-1.2-1.05-1.2-1.77s.35-1.53,1.05-2.41c.7-.88,1.67-1.77,2.91-2.66,1.24-.9,2.7-1.7,4.37-2.43.58-3.09,1.51-6.43,2.79-10.02s3.02-7.41,5.2-11.43c.21-.4.53-.59.95-.59.27,0,.51.09.73.27.21.18.32.42.32.73,0,.15-.05.35-.14.59-1.94,3.91-3.55,7.5-4.84,10.75-1.29,3.26-2.29,6.24-3.02,8.93,1.36-.51,2.82-.94,4.37-1.27,1.55-.33,3.12-.53,4.73-.59.42,0,.64.06.64.18s-.14.23-.44.34c-.29.1-.77.18-1.43.2-1.49.09-2.9.3-4.25.61-1.35.32-2.61.7-3.79,1.16-.45,1.76-.81,3.38-1.05,4.88s-.4,2.88-.45,4.16c3.12-.67,5.96-1.64,8.52-2.93s4.83-2.78,6.79-4.48,3.62-3.46,4.96-5.27c.85-1.15,1.46-2.18,1.84-3.07.38-.9.57-1.68.57-2.34,0-.97-.31-1.73-.91-2.29s-1.41-.97-2.41-1.23c-1-.26-2.09-.38-3.27-.38-1.24,0-2.5.11-3.77.34-1.27.23-2.42.54-3.46.93-.24.06-.41.09-.5.09-.4,0-.59-.14-.59-.41s.17-.49.5-.64c3.73-2.12,6.38-4.05,7.96-5.77,1.58-1.73,2.36-3.18,2.36-4.37,0-1.03-.47-1.83-1.43-2.38-.95-.56-2.2-.84-3.75-.84-1.21,0-2.58.19-4.09.59-1.51.4-3.08,1.03-4.68,1.91-1.33.73-2.54,1.58-3.61,2.57-1.08.99-1.99,2-2.73,3.05-.74,1.05-1.29,2.03-1.66,2.96-.36.92-.5,1.7-.41,2.34,0,.06,0,.13.03.2.01.08.02.14.02.2,0,.76-.23,1.14-.68,1.14-.21,0-.43-.15-.66-.45-.23-.31-.34-.76-.34-1.36,0-.91.28-1.88.84-2.91s1.32-2.07,2.27-3.11c.95-1.05,2.02-2.03,3.2-2.96,1.18-.92,2.41-1.72,3.68-2.38,1.64-.88,3.25-1.53,4.84-1.96,1.59-.42,3.05-.64,4.38-.64,1.85,0,3.35.36,4.5,1.09,1.15.73,1.73,1.74,1.73,3.05,0,1.21-.59,2.62-1.77,4.23s-3.17,3.38-5.96,5.32c.94-.15,1.82-.27,2.64-.34.82-.08,1.58-.11,2.27-.11,2.6,0,4.5.44,5.66,1.29,1.17.86,1.75,1.97,1.75,3.34,0,1-.28,2.09-.84,3.25-.56,1.17-1.34,2.37-2.34,3.61-1.46,1.79-3.28,3.51-5.48,5.18s-4.65,3.11-7.37,4.32c-2.72,1.21-5.6,2.03-8.66,2.46-.06,2.7.19,4.92.75,6.68s1.28,3.13,2.16,4.11c.88.99,1.76,1.68,2.64,2.09.88.41,1.6.62,2.18.62.42,0,.71-.08.86-.23.12-.15.31-.23.55-.23s.47.09.68.27.32.38.32.59c0,.18-.1.32-.32.41-.67.27-1.33.41-2,.41h-.01ZM11.22,50.21c.33,0,.7-.02,1.09-.06.4-.05.82-.1,1.27-.16-.03-1.27,0-2.6.09-4s.26-2.85.5-4.37c-1.94,1-3.47,2.11-4.59,3.34s-1.68,2.31-1.68,3.25c0,.58.27,1.05.82,1.44.55.38,1.38.57,2.5.57h0Z"/>
  <path d="M54.09,65.31c-1.4,0-2.73-.58-4.02-1.73-1.29-1.15-2.36-2.82-3.23-5-.86-2.18-1.37-4.82-1.52-7.91-.94.09-1.81.14-2.59.14-1.76,0-3.04-.23-3.84-.68s-1.2-1.05-1.2-1.77.35-1.53,1.05-2.41c.7-.88,1.66-1.77,2.91-2.66,1.24-.9,2.7-1.7,4.37-2.43.57-3.09,1.51-6.43,2.79-10.02s3.02-7.41,5.2-11.43c.21-.4.53-.59.95-.59.27,0,.51.09.73.27.21.18.32.42.32.73,0,.15-.05.35-.14.59-1.94,3.91-3.55,7.5-4.84,10.75-1.29,3.26-2.3,6.24-3.02,8.93,1.36-.51,2.82-.94,4.37-1.27,1.55-.33,3.12-.53,4.73-.59.42,0,.64.06.64.18s-.14.23-.44.34c-.29.1-.77.18-1.43.2-1.49.09-2.9.3-4.25.61-1.35.32-2.62.7-3.79,1.16-.45,1.76-.81,3.38-1.05,4.88-.25,1.5-.4,2.88-.45,4.16,3.12-.67,5.96-1.64,8.52-2.93s4.83-2.78,6.79-4.48,3.62-3.46,4.96-5.27c.84-1.15,1.46-2.18,1.84-3.07.38-.9.57-1.68.57-2.34,0-.97-.31-1.73-.91-2.29s-1.41-.97-2.41-1.23-2.09-.38-3.27-.38c-1.24,0-2.5.11-3.77.34s-2.42.54-3.46.93c-.24.06-.41.09-.5.09-.4,0-.59-.14-.59-.41s.17-.49.5-.64c3.73-2.12,6.38-4.05,7.96-5.77,1.57-1.73,2.36-3.18,2.36-4.37,0-1.03-.47-1.83-1.44-2.38-.95-.56-2.2-.84-3.75-.84-1.21,0-2.57.19-4.09.59-1.51.4-3.08,1.03-4.68,1.91-1.33.73-2.54,1.58-3.61,2.57-1.08.99-1.99,2-2.73,3.05-.74,1.05-1.29,2.03-1.66,2.96-.36.92-.5,1.7-.41,2.34,0,.06,0,.13.03.2.01.08.03.14.03.2,0,.76-.23,1.14-.68,1.14-.21,0-.44-.15-.66-.45-.23-.31-.34-.76-.34-1.36,0-.91.28-1.88.84-2.91s1.32-2.07,2.27-3.11,2.02-2.03,3.2-2.96c1.18-.92,2.41-1.72,3.68-2.38,1.64-.88,3.25-1.53,4.84-1.96,1.59-.42,3.05-.64,4.38-.64,1.84,0,3.35.36,4.5,1.09,1.15.73,1.73,1.74,1.73,3.05,0,1.21-.59,2.62-1.77,4.23s-3.17,3.38-5.96,5.32c.94-.15,1.82-.27,2.64-.34.82-.08,1.58-.11,2.27-.11,2.6,0,4.5.44,5.66,1.29,1.16.86,1.75,1.97,1.75,3.34,0,1-.28,2.09-.84,3.25-.56,1.17-1.34,2.37-2.34,3.61-1.46,1.79-3.28,3.51-5.48,5.18s-4.65,3.11-7.37,4.32-5.6,2.03-8.66,2.46c-.06,2.7.19,4.92.75,6.68s1.28,3.13,2.16,4.11c.88.99,1.76,1.68,2.64,2.09.88.41,1.6.62,2.18.62.42,0,.71-.08.86-.23.12-.15.31-.23.55-.23s.47.09.68.27.32.38.32.59c0,.18-.1.32-.32.41-.67.27-1.33.41-2,.41h-.01ZM42.9,50.21c.33,0,.7-.02,1.09-.06s.82-.1,1.27-.16c-.03-1.27,0-2.6.09-4s.26-2.85.5-4.37c-1.94,1-3.47,2.11-4.59,3.34s-1.68,2.31-1.68,3.25c0,.58.27,1.05.82,1.44.55.38,1.38.57,2.5.57h0Z"/>
</svg>