<?xml version="1.0" encoding="UTF-8"?>
<svg id="Layer_1" data-name="Layer 1" xmlns="http://www.w3.org/2000/svg" viewBox="0 0 79.17 79.17">
  <defs>
    <style>
      .cls-1 {
        fill: #e7e6e1;
      }
    </style>
  </defs>
  <circle class="cls-1" cx="39.58" cy="39.58" r="39.58"/>
  <path d="M38.16,74.75c-1.91,0-3.74-.79-5.5-2.36-1.76-1.57-3.23-3.85-4.41-6.84-1.18-2.98-1.87-6.59-2.08-10.82-1.29.12-2.47.19-3.54.19-2.41,0-4.16-.31-5.25-.93s-1.64-1.43-1.64-2.42.48-2.09,1.43-3.29c.95-1.2,2.27-2.42,3.98-3.63,1.7-1.23,3.69-2.33,5.97-3.32.78-4.23,2.06-8.79,3.82-13.7,1.76-4.91,4.13-10.12,7.11-15.63.28-.54.72-.81,1.31-.81.37,0,.7.12.99.37.29.25.44.58.44.99,0,.2-.06.48-.19.81-2.66,5.35-4.86,10.25-6.62,14.7-1.76,4.46-3.14,8.53-4.13,12.21,1.86-.7,3.85-1.29,5.97-1.74,2.11-.45,4.26-.73,6.47-.81.58,0,.87.08.87.25s-.2.32-.59.46c-.39.14-1.05.24-1.95.28-2.03.12-3.97.41-5.81.83-1.85.44-3.58.96-5.19,1.58-.62,2.41-1.1,4.63-1.43,6.68-.34,2.05-.54,3.94-.62,5.68,4.26-.91,8.15-2.25,11.65-4.01s6.6-3.8,9.29-6.12c2.69-2.32,4.95-4.72,6.78-7.21,1.15-1.57,2-2.97,2.51-4.19.52-1.23.78-2.29.78-3.2,0-1.32-.42-2.37-1.24-3.13s-1.93-1.32-3.29-1.68-2.86-.52-4.48-.52c-1.7,0-3.42.15-5.16.46s-3.31.74-4.72,1.27c-.33.08-.56.12-.68.12-.54,0-.81-.19-.81-.56s.23-.67.68-.87c5.1-2.9,8.72-5.53,10.88-7.89,2.15-2.36,3.23-4.35,3.23-5.97,0-1.41-.65-2.5-1.96-3.26-1.31-.76-3.01-1.15-5.12-1.15-1.66,0-3.52.27-5.59.81-2.07.54-4.21,1.41-6.4,2.61-1.82.99-3.47,2.17-4.94,3.51-1.47,1.35-2.72,2.74-3.73,4.16-1.01,1.43-1.77,2.78-2.26,4.04-.5,1.26-.68,2.33-.56,3.2,0,.08,0,.18.04.28.02.11.04.2.04.28,0,1.04-.31,1.55-.93,1.55-.29,0-.59-.2-.91-.62-.31-.42-.46-1.04-.46-1.86,0-1.24.38-2.57,1.15-3.98s1.8-2.82,3.11-4.25,2.76-2.77,4.38-4.04c1.62-1.26,3.29-2.35,5.04-3.26,2.24-1.2,4.44-2.09,6.62-2.67,2.18-.58,4.17-.87,5.99-.87,2.52,0,4.57.5,6.15,1.49,1.57.99,2.36,2.38,2.36,4.16,0,1.66-.81,3.59-2.42,5.78-1.62,2.19-4.33,4.62-8.14,7.27,1.29-.2,2.49-.36,3.61-.46,1.12-.11,2.16-.15,3.11-.15,3.56,0,6.15.59,7.73,1.77,1.59,1.18,2.39,2.7,2.39,4.56,0,1.37-.38,2.85-1.15,4.44-.76,1.6-1.83,3.24-3.2,4.94-1.99,2.44-4.48,4.8-7.49,7.09-3,2.28-6.36,4.24-10.07,5.91-3.71,1.66-7.66,2.77-11.84,3.36-.09,3.69.26,6.73,1.02,9.14.76,2.41,1.75,4.28,2.95,5.62,1.2,1.35,2.41,2.3,3.61,2.86,1.2.56,2.19.84,2.98.84.58,0,.98-.11,1.18-.31.17-.2.42-.31.75-.31s.64.12.93.37.44.52.44.81c0,.25-.14.44-.44.56-.91.37-1.82.56-2.74.56h-.02ZM22.87,54.11c.45,0,.95-.03,1.49-.09s1.12-.13,1.74-.22c-.04-1.74,0-3.56.12-5.47s.36-3.89.68-5.97c-2.66,1.37-4.74,2.89-6.28,4.56s-2.3,3.16-2.3,4.44c0,.79.37,1.44,1.12,1.96.75.52,1.88.77,3.42.77h0Z"/>
</svg>