<?xml version="1.0" encoding="UTF-8"?>
<svg id="Layer_1" data-name="Layer 1" xmlns="http://www.w3.org/2000/svg" viewBox="0 0 100 79.15">
  <path d="M25.26,79.15c-2.15,0-4.21-.89-6.19-2.66-1.98-1.77-3.64-4.34-4.97-7.7s-2.11-7.42-2.34-12.18c-1.45.14-2.78.21-3.99.21-2.71,0-4.68-.35-5.91-1.05-1.24-.7-1.85-1.61-1.85-2.73s.54-2.35,1.61-3.71c1.07-1.35,2.57-2.72,4.48-4.09,1.91-1.38,4.15-2.62,6.72-3.74.89-4.76,2.32-9.9,4.3-15.43,1.98-5.53,4.65-11.4,8.01-17.6.33-.61.82-.91,1.47-.91.42,0,.79.14,1.12.42.33.28.49.65.49,1.12,0,.23-.07.54-.21.91-2.99,6.02-5.47,11.54-7.45,16.55-1.98,5.02-3.53,9.6-4.65,13.75,2.1-.79,4.34-1.45,6.72-1.96,2.38-.51,4.8-.82,7.28-.91.65,0,.98.09.98.28s-.22.36-.67.52c-.44.16-1.18.27-2.2.31-2.29.14-4.47.46-6.54.94-2.08.49-4.02,1.08-5.84,1.78-.7,2.71-1.24,5.21-1.61,7.52-.37,2.31-.61,4.44-.7,6.4,4.8-1.03,9.18-2.53,13.12-4.51,3.94-1.98,7.43-4.28,10.46-6.89,3.03-2.61,5.57-5.32,7.63-8.12,1.31-1.77,2.25-3.35,2.83-4.72.58-1.38.87-2.58.87-3.6,0-1.49-.47-2.67-1.4-3.53-.93-.86-2.17-1.49-3.71-1.89-1.54-.4-3.22-.59-5.04-.59-1.91,0-3.85.17-5.81.52-1.96.35-3.73.83-5.32,1.43-.37.09-.63.14-.77.14-.61,0-.91-.21-.91-.63s.26-.75.77-.98c5.74-3.27,9.82-6.23,12.25-8.89,2.43-2.66,3.64-4.9,3.64-6.72,0-1.59-.73-2.81-2.2-3.67-1.47-.86-3.39-1.29-5.77-1.29-1.87,0-3.97.3-6.3.91-2.33.61-4.74,1.59-7.21,2.94-2.05,1.12-3.91,2.44-5.56,3.95-1.66,1.52-3.06,3.08-4.2,4.69-1.14,1.61-1.99,3.13-2.55,4.55-.56,1.42-.77,2.62-.63,3.6,0,.09.01.2.04.31.02.12.03.22.03.31,0,1.17-.35,1.75-1.05,1.75-.33,0-.66-.23-1.01-.7-.35-.47-.52-1.17-.52-2.1,0-1.4.43-2.89,1.29-4.48.86-1.59,2.03-3.18,3.5-4.79,1.47-1.61,3.11-3.12,4.93-4.55,1.82-1.42,3.71-2.65,5.67-3.67,2.52-1.35,5-2.35,7.45-3.01,2.45-.65,4.7-.98,6.75-.98,2.85,0,5.15.56,6.93,1.68,1.77,1.12,2.66,2.68,2.66,4.69,0,1.87-.91,4.04-2.73,6.51-1.82,2.47-4.88,5.2-9.17,8.19,1.45-.23,2.8-.41,4.06-.52,1.26-.12,2.43-.17,3.5-.17,4.01,0,6.92.67,8.71,1.99,1.8,1.33,2.69,3.04,2.69,5.14,0,1.54-.43,3.21-1.29,5-.86,1.8-2.06,3.65-3.6,5.56-2.24,2.75-5.05,5.41-8.43,7.98-3.38,2.57-7.16,4.78-11.34,6.65-4.18,1.87-8.62,3.12-13.33,3.78-.09,4.15.29,7.58,1.15,10.29.86,2.71,1.97,4.82,3.32,6.33,1.35,1.52,2.71,2.59,4.06,3.22,1.35.63,2.47.95,3.36.95.65,0,1.1-.12,1.33-.35.19-.23.47-.35.84-.35s.72.14,1.05.42c.33.28.49.58.49.91,0,.28-.16.49-.49.63-1.03.42-2.05.63-3.08.63ZM8.05,55.91c.51,0,1.07-.03,1.68-.1.61-.07,1.26-.15,1.96-.25-.05-1.96,0-4.01.14-6.16.14-2.15.4-4.38.77-6.72-2.99,1.54-5.34,3.25-7.07,5.14-1.73,1.89-2.59,3.56-2.59,5,0,.89.42,1.62,1.26,2.21.84.58,2.12.87,3.85.87Z"/>
  <path d="M74.04,79.15c-2.15,0-4.21-.89-6.19-2.66-1.98-1.77-3.64-4.34-4.97-7.7-1.33-3.36-2.11-7.42-2.34-12.18-1.45.14-2.78.21-3.99.21-2.71,0-4.68-.35-5.91-1.05s-1.85-1.61-1.85-2.73.54-2.35,1.61-3.71c1.07-1.35,2.56-2.72,4.48-4.09,1.91-1.38,4.15-2.62,6.72-3.74.88-4.76,2.32-9.9,4.3-15.43,1.98-5.53,4.65-11.4,8.01-17.6.32-.61.81-.91,1.47-.91.42,0,.79.14,1.12.42.33.28.49.65.49,1.12,0,.23-.07.54-.21.91-2.99,6.02-5.47,11.54-7.45,16.55-1.98,5.02-3.54,9.6-4.65,13.75,2.1-.79,4.34-1.45,6.72-1.96,2.38-.51,4.8-.82,7.28-.91.65,0,.98.09.98.28s-.22.36-.67.52c-.44.16-1.18.27-2.2.31-2.29.14-4.47.46-6.54.94-2.08.49-4.03,1.08-5.84,1.78-.7,2.71-1.24,5.21-1.61,7.52-.38,2.31-.61,4.44-.7,6.4,4.8-1.03,9.18-2.53,13.12-4.51,3.94-1.98,7.43-4.28,10.46-6.89,3.03-2.61,5.57-5.32,7.63-8.12,1.3-1.77,2.25-3.35,2.83-4.72.58-1.38.88-2.58.88-3.6,0-1.49-.47-2.67-1.4-3.53-.93-.86-2.17-1.49-3.71-1.89-1.54-.4-3.22-.59-5.04-.59-1.91,0-3.85.17-5.81.52-1.96.35-3.73.83-5.32,1.43-.37.09-.63.14-.77.14-.61,0-.91-.21-.91-.63s.26-.75.77-.98c5.74-3.27,9.82-6.23,12.25-8.89,2.42-2.66,3.64-4.9,3.64-6.72,0-1.59-.73-2.81-2.21-3.67-1.47-.86-3.39-1.29-5.77-1.29-1.87,0-3.96.3-6.3.91-2.33.61-4.74,1.59-7.21,2.94-2.05,1.12-3.91,2.44-5.56,3.95-1.66,1.52-3.06,3.08-4.2,4.69-1.14,1.61-1.99,3.13-2.55,4.55-.56,1.42-.77,2.62-.63,3.6,0,.09.01.2.04.31.02.12.04.22.04.31,0,1.17-.35,1.75-1.05,1.75-.33,0-.67-.23-1.02-.7-.35-.47-.52-1.17-.52-2.1,0-1.4.43-2.89,1.29-4.48.86-1.59,2.03-3.18,3.5-4.79,1.47-1.61,3.11-3.12,4.93-4.55,1.82-1.42,3.71-2.65,5.67-3.67,2.52-1.35,5-2.35,7.45-3.01,2.45-.65,4.7-.98,6.75-.98,2.84,0,5.15.56,6.93,1.68,1.77,1.12,2.66,2.68,2.66,4.69,0,1.87-.91,4.04-2.73,6.51-1.82,2.47-4.88,5.2-9.17,8.19,1.45-.23,2.8-.41,4.06-.52,1.26-.12,2.43-.17,3.5-.17,4.01,0,6.92.67,8.71,1.99,1.79,1.33,2.69,3.04,2.69,5.14,0,1.54-.43,3.21-1.29,5-.86,1.8-2.06,3.65-3.6,5.56-2.24,2.75-5.05,5.41-8.43,7.98-3.38,2.57-7.16,4.78-11.34,6.65s-8.62,3.12-13.33,3.78c-.1,4.15.29,7.58,1.15,10.29.86,2.71,1.97,4.82,3.32,6.33,1.35,1.52,2.71,2.59,4.06,3.22,1.35.63,2.47.95,3.36.95.65,0,1.1-.12,1.33-.35.19-.23.47-.35.84-.35s.72.14,1.05.42c.33.28.49.58.49.91,0,.28-.16.49-.49.63-1.03.42-2.05.63-3.08.63ZM56.82,55.91c.51,0,1.07-.03,1.68-.1.61-.07,1.26-.15,1.96-.25-.05-1.96,0-4.01.14-6.16.14-2.15.4-4.38.77-6.72-2.99,1.54-5.34,3.25-7.07,5.14-1.73,1.89-2.59,3.56-2.59,5,0,.89.42,1.62,1.26,2.21.84.58,2.12.87,3.85.87Z"/>
</svg>