<svg width="146" height="47" viewBox="0 0 146 47" fill="none" xmlns="http://www.w3.org/2000/svg">
<path d="M14.64 46C13.4133 46 12.2267 45.4933 11.08 44.48C9.96 43.4667 9.01333 42 8.24 40.08C7.49333 38.16 7.05333 35.84 6.92 33.12C6.09333 33.2 5.33333 33.24 4.64 33.24C3.09333 33.24 1.96 33.04 1.24 32.64C0.546667 32.24 0.2 31.72 0.2 31.08C0.2 30.44 0.506667 29.7333 1.12 28.96C1.73333 28.1867 2.58667 27.4133 3.68 26.64C4.77333 25.84 6.05333 25.12 7.52 24.48C8.02667 21.76 8.84 18.8267 9.96 15.68C11.1067 12.5067 12.64 9.14667 14.56 5.6C14.7467 5.25333 15.0267 5.08 15.4 5.08C15.64 5.08 15.8533 5.16 16.04 5.32C16.2267 5.48 16.32 5.69333 16.32 5.96C16.32 6.09333 16.28 6.26666 16.2 6.48C14.4933 9.92 13.0667 13.08 11.92 15.96C10.8 18.8133 9.92 21.4267 9.28 23.8C10.48 23.3467 11.76 22.9733 13.12 22.68C14.48 22.3867 15.8667 22.2133 17.28 22.16C17.6533 22.16 17.84 22.2133 17.84 22.32C17.84 22.4267 17.7067 22.5333 17.44 22.64C17.2 22.72 16.7867 22.7733 16.2 22.8C14.8933 22.88 13.64 23.0667 12.44 23.36C11.2667 23.6267 10.16 23.96 9.12 24.36C8.72 25.9067 8.41333 27.3467 8.2 28.68C7.98667 29.9867 7.85333 31.2 7.8 32.32C10.5467 31.7333 13.04 30.88 15.28 29.76C17.5467 28.6133 19.5467 27.2933 21.28 25.8C23.0133 24.3067 24.4667 22.76 25.64 21.16C26.3867 20.1467 26.92 19.2533 27.24 18.48C27.5867 17.68 27.76 16.9867 27.76 16.4C27.76 15.5467 27.4933 14.88 26.96 14.4C26.4267 13.8933 25.72 13.5333 24.84 13.32C23.96 13.08 23 12.96 21.96 12.96C20.8667 12.96 19.76 13.0667 18.64 13.28C17.52 13.4667 16.5067 13.7333 15.6 14.08C15.3867 14.1333 15.24 14.16 15.16 14.16C14.8133 14.16 14.64 14.04 14.64 13.8C14.64 13.56 14.7867 13.3733 15.08 13.24C18.36 11.3733 20.6933 9.68 22.08 8.16C23.4667 6.64 24.16 5.36 24.16 4.32C24.16 3.41333 23.7333 2.72 22.88 2.24C22.0533 1.73333 20.96 1.48 19.6 1.48C18.5333 1.48 17.3333 1.65333 16 2C14.6667 2.34667 13.2933 2.90667 11.88 3.68C10.7067 4.32 9.64 5.08 8.68 5.96C7.74667 6.81333 6.94667 7.70667 6.28 8.64C5.64 9.54667 5.16 10.4133 4.84 11.24C4.52 12.04 4.4 12.72 4.48 13.28C4.48 13.3333 4.48 13.4 4.48 13.48C4.50667 13.5333 4.52 13.5867 4.52 13.64C4.52 14.3067 4.32 14.64 3.92 14.64C3.73333 14.64 3.53333 14.5067 3.32 14.24C3.13333 13.9733 3.04 13.5733 3.04 13.04C3.04 12.24 3.28 11.3867 3.76 10.48C4.26667 9.57333 4.93333 8.66666 5.76 7.76C6.61333 6.82666 7.56 5.96 8.6 5.16C9.64 4.33333 10.72 3.62666 11.84 3.04C13.28 2.26666 14.6933 1.69333 16.08 1.32C17.4933 0.946665 18.7867 0.759998 19.96 0.759998C21.5867 0.759998 22.9067 1.08 23.92 1.72C24.9333 2.36 25.44 3.25333 25.44 4.4C25.44 5.46667 24.92 6.70667 23.88 8.12C22.84 9.53333 21.0933 11.0933 18.64 12.8C19.4667 12.6667 20.24 12.5733 20.96 12.52C21.68 12.44 22.3467 12.4 22.96 12.4C25.2533 12.4 26.9067 12.7867 27.92 13.56C28.96 14.3067 29.48 15.28 29.48 16.48C29.48 17.36 29.2267 18.32 28.72 19.36C28.24 20.3733 27.56 21.4267 26.68 22.52C25.4 24.0933 23.7867 25.6133 21.84 27.08C19.92 28.5467 17.76 29.8133 15.36 30.88C12.9867 31.9467 10.4533 32.6667 7.76 33.04C7.70667 35.4133 7.92 37.3733 8.4 38.92C8.90667 40.4667 9.54667 41.6667 10.32 42.52C11.0933 43.4 11.8667 44.0133 12.64 44.36C13.4133 44.7333 14.0533 44.92 14.56 44.92C14.9333 44.92 15.1867 44.8533 15.32 44.72C15.4267 44.5867 15.5867 44.52 15.8 44.52C16.0133 44.52 16.2133 44.6 16.4 44.76C16.5867 44.92 16.68 45.0933 16.68 45.28C16.68 45.44 16.5867 45.56 16.4 45.64C15.8133 45.88 15.2267 46 14.64 46ZM4.8 32.72C5.09333 32.72 5.41333 32.6933 5.76 32.64C6.10667 32.6133 6.48 32.5733 6.88 32.52C6.85333 31.4 6.88 30.2267 6.96 29C7.04 27.7733 7.18667 26.4933 7.4 25.16C5.69333 26.04 4.34667 27.0267 3.36 28.12C2.37333 29.1867 1.88 30.1333 1.88 30.96C1.88 31.4667 2.12 31.88 2.6 32.2C3.08 32.5467 3.81333 32.72 4.8 32.72ZM31.0506 30.68C30.704 30.68 30.4106 30.5067 30.1706 30.16C29.9573 29.8133 29.864 29.2533 29.8906 28.48C29.8906 28.1067 29.9973 27.4933 30.2106 26.64C30.424 25.76 30.6506 24.7867 30.8906 23.72C31.1573 22.6533 31.384 21.6133 31.5706 20.6C31.784 19.5867 31.8906 18.76 31.8906 18.12C31.8906 17.8267 31.864 17.5867 31.8106 17.4C31.7573 17.1867 31.624 17.08 31.4106 17.08C31.2506 17.08 31.104 17.16 30.9706 17.32C30.8373 17.4533 30.704 17.5867 30.5706 17.72C30.384 17.96 30.2773 18.08 30.2506 18.08C30.224 18.08 30.2106 18.04 30.2106 17.96C30.2106 17.64 30.3306 17.2933 30.5706 16.92C30.8373 16.52 31.144 16.32 31.4906 16.32C31.9173 16.32 32.224 16.5333 32.4106 16.96C32.5973 17.36 32.6906 17.9333 32.6906 18.68C32.6906 19.5067 32.5973 20.44 32.4106 21.48C32.224 22.52 32.024 23.4933 31.8106 24.4C31.704 24.8267 31.6106 25.3467 31.5306 25.96C31.4506 26.5733 31.4106 27.1733 31.4106 27.76C31.4106 28.2667 31.4506 28.6933 31.5306 29.04C31.6373 29.36 31.824 29.52 32.0906 29.52C32.304 29.52 32.5573 29.4 32.8506 29.16C33.1706 28.8933 33.544 28.4533 33.9706 27.84C34.584 26.9867 35.1306 26.0133 35.6106 24.92C36.1173 23.8 36.584 22.7867 37.0106 21.88C37.1706 21.5067 37.3706 21.32 37.6106 21.32C38.224 21.32 38.5306 21.6533 38.5306 22.32C38.5306 22.8267 38.4506 23.4667 38.2906 24.24C38.1573 24.9867 38.0906 25.7067 38.0906 26.4C38.0906 27.6533 38.3306 28.28 38.8106 28.28C39.0506 28.28 39.2906 28.1333 39.5306 27.84C39.7973 27.52 39.944 27.3333 39.9706 27.28C40.1306 27.0933 40.2773 27 40.4106 27C40.5706 27 40.6506 27.0933 40.6506 27.28C40.6506 27.6267 40.4506 28 40.0506 28.4C39.6506 28.8 39.224 29 38.7706 29C38.344 29 37.9973 28.8533 37.7306 28.56C37.4906 28.24 37.264 27.8267 37.0506 27.32C36.8106 26.7067 36.6906 26.1733 36.6906 25.72C36.6906 25.2667 36.664 24.8267 36.6106 24.4C36.424 25.04 36.104 25.72 35.6506 26.44C35.224 27.16 34.7306 27.8533 34.1706 28.52C33.6373 29.16 33.0906 29.68 32.5306 30.08C31.9706 30.48 31.4773 30.68 31.0506 30.68ZM41.6803 32.88C41.0403 32.88 40.5603 32.6 40.2403 32.04C39.9203 31.5067 39.7603 30.8267 39.7603 30C39.7603 29.4133 39.8803 28.68 40.1203 27.8C40.3603 26.92 40.6936 26 41.1203 25.04C41.547 24.08 42.027 23.1867 42.5603 22.36C43.0936 21.5067 43.6403 20.8267 44.2003 20.32C44.787 19.7867 45.3603 19.52 45.9203 19.52C46.3736 19.52 46.6936 19.6933 46.8803 20.04C47.0936 20.36 47.2003 20.7067 47.2003 21.08C47.2003 21.4 47.1336 21.6933 47.0003 21.96C46.8936 22.2 46.7336 22.32 46.5203 22.32C46.307 22.32 46.147 22.2267 46.0403 22.04C45.9603 21.8267 45.8803 21.6133 45.8003 21.4C45.747 21.1867 45.6003 21.08 45.3603 21.08C44.8803 21.08 44.4003 21.3867 43.9203 22C43.4403 22.6133 43.0003 23.3867 42.6003 24.32C42.2003 25.2533 41.8803 26.2267 41.6403 27.24C41.4003 28.2267 41.2803 29.1067 41.2803 29.88C41.2803 30.44 41.347 30.88 41.4803 31.2C41.6403 31.5467 41.8936 31.72 42.2403 31.72C42.6936 31.72 43.147 31.44 43.6003 30.88C44.0803 30.2933 44.547 29.5467 45.0003 28.64C45.4536 27.7067 45.867 26.7333 46.2403 25.72C46.6403 24.7067 46.9736 23.76 47.2403 22.88C47.5336 21.9733 47.7603 21.2533 47.9203 20.72C48.1336 18.8533 48.387 16.9733 48.6803 15.08C49.0003 13.1867 49.467 11.3467 50.0803 9.56C50.1603 9.26667 50.2803 9.01333 50.4403 8.8C50.627 8.58667 50.8136 8.48 51.0003 8.48C51.2136 8.48 51.387 8.62667 51.5203 8.92C51.6803 9.21333 51.7603 9.54667 51.7603 9.92C51.7603 10.2133 51.707 10.52 51.6003 10.84C51.4936 11.16 51.3603 11.5867 51.2003 12.12C51.0136 12.76 50.7736 13.6133 50.4803 14.68C50.2136 15.72 49.9336 16.9067 49.6403 18.24C49.347 19.5467 49.0936 20.9467 48.8803 22.44C48.6936 23.9067 48.6003 25.3733 48.6003 26.84C48.6003 27.96 48.6803 28.7467 48.8403 29.2C49.0003 29.6533 49.2136 29.88 49.4803 29.88C49.7736 29.88 50.0936 29.6933 50.4403 29.32C50.8136 28.9467 51.1736 28.4933 51.5203 27.96C51.8936 27.4267 52.227 26.8933 52.5203 26.36C52.8136 25.8 53.0403 25.36 53.2003 25.04C53.4936 24.4533 53.7203 24.16 53.8803 24.16C53.987 24.16 54.0403 24.28 54.0403 24.52C54.0403 24.7067 54.0003 24.9067 53.9203 25.12C53.7603 25.4667 53.6536 25.7333 53.6003 25.92C53.547 26.08 53.4803 26.24 53.4003 26.4C53.347 26.56 53.2136 26.8133 53.0003 27.16C52.8136 27.48 52.5203 27.92 52.1203 28.48C51.7203 29.0133 51.267 29.5067 50.7603 29.96C50.2536 30.3867 49.747 30.6 49.2403 30.6C48.7336 30.6 48.347 30.3867 48.0803 29.96C47.8403 29.5333 47.6803 28.9867 47.6003 28.32C47.547 27.6267 47.5203 26.92 47.5203 26.2C47.5203 25.32 47.5603 24.3867 47.6403 23.4C47.4536 24.04 47.2003 24.8 46.8803 25.68C46.5603 26.5333 46.2003 27.4 45.8003 28.28C45.4003 29.16 44.9736 29.96 44.5203 30.68C44.147 31.2667 43.7336 31.7733 43.2803 32.2C42.827 32.6533 42.2936 32.88 41.6803 32.88ZM52.5925 46.88C51.5258 46.88 50.6192 46.56 49.8725 45.92C49.0992 45.3067 48.7125 44.48 48.7125 43.44C48.7125 42.4 49.2058 41.1867 50.1925 39.8C51.1792 38.4133 52.8458 36.9733 55.1925 35.48C55.7258 35.1067 56.2858 34.7733 56.8725 34.48C57.4858 34.1867 58.1125 33.88 58.7525 33.56C58.9125 33.48 59.0325 33.44 59.1125 33.44C59.2192 33.44 59.2725 33.48 59.2725 33.56C59.2725 33.7467 59.0858 33.9467 58.7125 34.16C57.4325 34.8 56.3392 35.4667 55.4325 36.16C54.5525 36.88 53.7392 37.72 52.9925 38.68C52.5925 39.1867 52.1658 39.7733 51.7125 40.44C51.2858 41.1333 50.9258 41.8133 50.6325 42.48C50.3125 43.1467 50.1525 43.7467 50.1525 44.28C50.1525 45.4 50.6858 45.96 51.7525 45.96C52.2058 45.96 52.7392 45.8267 53.3525 45.56C53.9658 45.32 54.6325 44.92 55.3525 44.36C57.1658 42.9467 58.4458 41.3733 59.1925 39.64C59.9392 37.9333 60.3125 35.9333 60.3125 33.64C60.3125 31.9333 60.1525 30.04 59.8325 27.96C59.5392 25.8267 59.3792 23.7867 59.3525 21.84C59.2192 22.6667 58.9925 23.6667 58.6725 24.84C58.3792 25.9867 58.0192 27.08 57.5925 28.12C57.1658 29.16 56.6858 30.0533 56.1525 30.8C55.6458 31.5467 54.9925 31.92 54.1925 31.92C53.6325 31.92 53.1525 31.64 52.7525 31.08C52.3792 30.52 52.1925 29.6667 52.1925 28.52C52.1925 27.6667 52.3392 26.6533 52.6325 25.48C52.9258 24.3067 53.3258 23.1733 53.8325 22.08C54.3392 20.96 54.8992 20.04 55.5125 19.32C56.1525 18.5733 56.7925 18.2 57.4325 18.2C57.8858 18.2 58.2058 18.3867 58.3925 18.76C58.6058 19.1067 58.7125 19.4667 58.7125 19.84C58.7125 20.1333 58.6592 20.3867 58.5525 20.6C58.4458 20.8133 58.2858 20.92 58.0725 20.92C57.8592 20.8933 57.6992 20.8 57.5925 20.64C57.5125 20.4533 57.4325 20.28 57.3525 20.12C57.2725 19.9333 57.1258 19.84 56.9125 19.84C56.4858 19.84 56.0725 20.12 55.6725 20.68C55.2992 21.2133 54.9525 21.92 54.6325 22.8C54.3392 23.6533 54.0992 24.56 53.9125 25.52C53.7525 26.48 53.6725 27.36 53.6725 28.16C53.6725 28.9067 53.7525 29.52 53.9125 30C54.0992 30.48 54.3792 30.7333 54.7525 30.76C55.2058 30.7867 55.6458 30.4933 56.0725 29.88C56.4992 29.2667 56.8858 28.48 57.2325 27.52C57.6058 26.56 57.9258 25.5467 58.1925 24.48C58.4858 23.3867 58.7258 22.3733 58.9125 21.44C59.1258 20.48 59.2725 19.7333 59.3525 19.2C59.5658 17.7867 59.7658 16.8933 59.9525 16.52C60.1392 16.12 60.3392 15.92 60.5525 15.92C60.7392 15.92 60.8992 16.0933 61.0325 16.44C61.1925 16.7867 61.2725 17.1067 61.2725 17.4C61.2725 17.6133 61.2592 17.76 61.2325 17.84C60.9125 19.6 60.7525 21.4 60.7525 23.24C60.7525 24.0133 60.7792 24.7867 60.8325 25.56C60.8858 26.3067 60.9525 27.0533 61.0325 27.8C61.1925 29.3467 61.2725 30.7867 61.2725 32.12C61.2725 34.84 60.9925 37.1333 60.4325 39C59.8992 40.8933 59.1925 42.4133 58.3125 43.56C57.4325 44.7333 56.4858 45.5733 55.4725 46.08C54.4858 46.6133 53.5258 46.88 52.5925 46.88ZM67.3188 31.52C66.3588 31.52 65.5188 30.96 64.7988 29.84C64.1054 28.6933 63.7588 26.8933 63.7588 24.44C63.7588 22.84 63.9588 21.56 64.3588 20.6C64.7588 19.6133 65.2521 18.8933 65.8388 18.44C66.4254 17.9867 66.9854 17.76 67.5188 17.76C68.0521 17.76 68.5054 17.9467 68.8788 18.32C69.2521 18.6667 69.4388 19.1733 69.4388 19.84C69.4388 20.48 69.2521 21.16 68.8788 21.88C68.5054 22.5733 68.0521 23.2133 67.5188 23.8C67.0121 24.36 66.5054 24.7333 65.9988 24.92C65.8921 24.9733 65.7588 25 65.5988 25C65.4921 25 65.4388 24.96 65.4388 24.88C65.4388 24.6667 65.6521 24.4267 66.0788 24.16C66.6121 23.7867 67.1188 23.2267 67.5988 22.48C68.0788 21.7067 68.3188 21.0267 68.3188 20.44C68.3188 20.0933 68.2388 19.8267 68.0788 19.64C67.9188 19.4267 67.7321 19.32 67.5188 19.32C67.1188 19.32 66.6788 19.64 66.1988 20.28C65.7454 20.8933 65.4121 21.96 65.1988 23.48C65.1454 23.9067 65.0921 24.32 65.0388 24.72C65.0121 25.0933 64.9988 25.4667 64.9988 25.84C64.9988 27.3333 65.2254 28.5067 65.6788 29.36C66.1321 30.1867 66.7321 30.6 67.4788 30.6C68.1188 30.6 68.8388 30.2267 69.6388 29.48C70.4388 28.7067 71.2254 27.5067 71.9988 25.88C72.1854 25.4533 72.3988 25.24 72.6388 25.24C72.7988 25.24 72.8788 25.3467 72.8788 25.56C72.8788 25.7467 72.8254 25.9467 72.7188 26.16C72.0254 27.8667 71.1854 29.1867 70.1988 30.12C69.2121 31.0533 68.2521 31.52 67.3188 31.52ZM75.1684 37.4C74.9018 37.4 74.6218 37.2267 74.3284 36.88C74.0618 36.56 73.8084 36.1067 73.5684 35.52C73.1684 34.56 72.8884 33.5467 72.7284 32.48C72.5684 31.44 72.4884 30.3867 72.4884 29.32C72.4884 28.1467 72.5684 27 72.7284 25.88C72.8884 24.76 73.0618 23.7467 73.2484 22.84C73.3818 22.2 73.5418 21.52 73.7284 20.8C73.9151 20.08 74.0884 19.5067 74.2484 19.08C74.0884 19.1067 73.8351 19.2 73.4884 19.36C73.1418 19.52 72.7818 19.68 72.4084 19.84C72.0618 20 71.7551 20.08 71.4884 20.08C71.0884 20.08 70.8884 19.8533 70.8884 19.4C70.8884 19.16 70.9684 18.9467 71.1284 18.76C71.3151 18.5733 71.5418 18.4267 71.8084 18.32C72.3418 18.08 72.9284 17.9067 73.5684 17.8C74.2084 17.6667 74.6351 17.5333 74.8484 17.4L75.8884 14.76C75.9951 14.4933 76.1818 14.0667 76.4484 13.48C76.7418 12.8667 77.0751 12.2133 77.4484 11.52C77.8484 10.8267 78.2351 10.2 78.6084 9.64C78.9018 9.21333 79.1818 8.88 79.4484 8.64C79.7151 8.37333 80.0084 8.24 80.3284 8.24C80.8084 8.24 81.0484 8.42667 81.0484 8.8C81.0484 9.01333 80.9551 9.33333 80.7684 9.76C80.6084 10.1867 80.3018 10.7467 79.8484 11.44C79.3418 12.24 78.8218 13.04 78.2884 13.84C77.7818 14.6133 77.3418 15.4267 76.9684 16.28C76.9418 16.3867 76.8751 16.56 76.7684 16.8C76.6884 17.0133 76.6218 17.1467 76.5684 17.2L77.3684 17.08C77.5818 17.0533 77.8218 17.04 78.0884 17.04C78.3551 17.0133 78.6484 17 78.9684 17C79.4218 17 79.8484 17.0267 80.2484 17.08C80.6751 17.1067 81.0218 17.1733 81.2884 17.28C81.4218 17.3333 81.5418 17.4 81.6484 17.48C81.7818 17.5333 81.8484 17.5867 81.8484 17.64C81.8484 17.7467 81.5018 17.8 80.8084 17.8C80.4084 17.8 79.8351 17.8667 79.0884 18C78.3684 18.1333 77.5418 18.3467 76.6084 18.64C76.1551 18.7733 75.8484 18.96 75.6884 19.2C75.5284 19.44 75.3151 20.0133 75.0484 20.92C74.6484 22.36 74.3284 23.7467 74.0884 25.08C73.8484 26.3867 73.6618 27.72 73.5284 29.08C73.5018 29.3467 73.4751 29.6267 73.4484 29.92C73.4484 30.2133 73.4484 30.5333 73.4484 30.88C73.4484 31.7867 73.5284 32.7333 73.6884 33.72C73.8751 34.7067 74.1418 35.56 74.4884 36.28C74.5684 36.44 74.6484 36.5867 74.7284 36.72C74.8351 36.8533 74.9551 36.9467 75.0884 37C75.2751 37.08 75.3684 37.1733 75.3684 37.28C75.3684 37.36 75.3018 37.4 75.1684 37.4ZM100.148 46C98.9211 46 97.7345 45.4933 96.5878 44.48C95.4678 43.4667 94.5211 42 93.7478 40.08C93.0011 38.16 92.5611 35.84 92.4278 33.12C91.6011 33.2 90.8411 33.24 90.1478 33.24C88.6011 33.24 87.4678 33.04 86.7478 32.64C86.0545 32.24 85.7078 31.72 85.7078 31.08C85.7078 30.44 86.0145 29.7333 86.6278 28.96C87.2411 28.1867 88.0945 27.4133 89.1878 26.64C90.2811 25.84 91.5611 25.12 93.0278 24.48C93.5345 21.76 94.3478 18.8267 95.4678 15.68C96.6145 12.5067 98.1478 9.14667 100.068 5.6C100.254 5.25333 100.534 5.08 100.908 5.08C101.148 5.08 101.361 5.16 101.548 5.32C101.734 5.48 101.828 5.69333 101.828 5.96C101.828 6.09333 101.788 6.26666 101.708 6.48C100.001 9.92 98.5745 13.08 97.4278 15.96C96.3078 18.8133 95.4278 21.4267 94.7878 23.8C95.9878 23.3467 97.2678 22.9733 98.6278 22.68C99.9878 22.3867 101.374 22.2133 102.788 22.16C103.161 22.16 103.348 22.2133 103.348 22.32C103.348 22.4267 103.214 22.5333 102.948 22.64C102.708 22.72 102.294 22.7733 101.708 22.8C100.401 22.88 99.1478 23.0667 97.9478 23.36C96.7745 23.6267 95.6678 23.96 94.6278 24.36C94.2278 25.9067 93.9211 27.3467 93.7078 28.68C93.4945 29.9867 93.3611 31.2 93.3078 32.32C96.0545 31.7333 98.5478 30.88 100.788 29.76C103.054 28.6133 105.054 27.2933 106.788 25.8C108.521 24.3067 109.974 22.76 111.148 21.16C111.894 20.1467 112.428 19.2533 112.748 18.48C113.094 17.68 113.268 16.9867 113.268 16.4C113.268 15.5467 113.001 14.88 112.468 14.4C111.934 13.8933 111.228 13.5333 110.348 13.32C109.468 13.08 108.508 12.96 107.468 12.96C106.374 12.96 105.268 13.0667 104.148 13.28C103.028 13.4667 102.014 13.7333 101.108 14.08C100.894 14.1333 100.748 14.16 100.668 14.16C100.321 14.16 100.148 14.04 100.148 13.8C100.148 13.56 100.294 13.3733 100.588 13.24C103.868 11.3733 106.201 9.68 107.588 8.16C108.974 6.64 109.668 5.36 109.668 4.32C109.668 3.41333 109.241 2.72 108.388 2.24C107.561 1.73333 106.468 1.48 105.108 1.48C104.041 1.48 102.841 1.65333 101.508 2C100.174 2.34667 98.8011 2.90667 97.3878 3.68C96.2145 4.32 95.1478 5.08 94.1878 5.96C93.2545 6.81333 92.4545 7.70667 91.7878 8.64C91.1478 9.54667 90.6678 10.4133 90.3478 11.24C90.0278 12.04 89.9078 12.72 89.9878 13.28C89.9878 13.3333 89.9878 13.4 89.9878 13.48C90.0145 13.5333 90.0278 13.5867 90.0278 13.64C90.0278 14.3067 89.8278 14.64 89.4278 14.64C89.2411 14.64 89.0411 14.5067 88.8278 14.24C88.6411 13.9733 88.5478 13.5733 88.5478 13.04C88.5478 12.24 88.7878 11.3867 89.2678 10.48C89.7745 9.57333 90.4411 8.66666 91.2678 7.76C92.1211 6.82666 93.0678 5.96 94.1078 5.16C95.1478 4.33333 96.2278 3.62666 97.3478 3.04C98.7878 2.26666 100.201 1.69333 101.588 1.32C103.001 0.946665 104.294 0.759998 105.468 0.759998C107.094 0.759998 108.414 1.08 109.428 1.72C110.441 2.36 110.948 3.25333 110.948 4.4C110.948 5.46667 110.428 6.70667 109.388 8.12C108.348 9.53333 106.601 11.0933 104.148 12.8C104.974 12.6667 105.748 12.5733 106.468 12.52C107.188 12.44 107.854 12.4 108.468 12.4C110.761 12.4 112.414 12.7867 113.428 13.56C114.468 14.3067 114.988 15.28 114.988 16.48C114.988 17.36 114.734 18.32 114.228 19.36C113.748 20.3733 113.068 21.4267 112.188 22.52C110.908 24.0933 109.294 25.6133 107.348 27.08C105.428 28.5467 103.268 29.8133 100.868 30.88C98.4945 31.9467 95.9611 32.6667 93.2678 33.04C93.2145 35.4133 93.4278 37.3733 93.9078 38.92C94.4145 40.4667 95.0545 41.6667 95.8278 42.52C96.6011 43.4 97.3745 44.0133 98.1478 44.36C98.9211 44.7333 99.5611 44.92 100.068 44.92C100.441 44.92 100.694 44.8533 100.828 44.72C100.934 44.5867 101.094 44.52 101.308 44.52C101.521 44.52 101.721 44.6 101.908 44.76C102.094 44.92 102.188 45.0933 102.188 45.28C102.188 45.44 102.094 45.56 101.908 45.64C101.321 45.88 100.734 46 100.148 46ZM90.3078 32.72C90.6011 32.72 90.9211 32.6933 91.2678 32.64C91.6145 32.6133 91.9878 32.5733 92.3878 32.52C92.3611 31.4 92.3878 30.2267 92.4678 29C92.5478 27.7733 92.6945 26.4933 92.9078 25.16C91.2011 26.04 89.8545 27.0267 88.8678 28.12C87.8811 29.1867 87.3878 30.1333 87.3878 30.96C87.3878 31.4667 87.6278 31.88 88.1078 32.2C88.5878 32.5467 89.3211 32.72 90.3078 32.72ZM119.638 17.64C119.398 17.64 119.225 17.52 119.118 17.28C119.038 17.0133 118.998 16.8267 118.998 16.72C118.998 16.2933 119.118 15.8933 119.358 15.52C119.625 15.12 119.918 14.9067 120.238 14.88H120.358C120.678 14.88 120.892 14.96 120.998 15.12C121.132 15.2533 121.198 15.4267 121.198 15.64C121.198 16.04 121.025 16.48 120.678 16.96C120.332 17.4133 119.985 17.64 119.638 17.64ZM117.598 31.96C116.692 31.96 116.078 31.6133 115.758 30.92C115.438 30.2267 115.278 29.4267 115.278 28.52C115.278 27.6133 115.372 26.6667 115.558 25.68C115.772 24.6667 115.998 23.7467 116.238 22.92C116.505 22.0933 116.705 21.5067 116.838 21.16C117.132 20.5467 117.425 20.0267 117.718 19.6C118.012 19.1467 118.332 18.92 118.678 18.92C118.918 18.92 119.092 19.0133 119.198 19.2C119.332 19.36 119.398 19.5733 119.398 19.84C119.398 20.3733 119.252 20.92 118.958 21.48C118.665 22.0133 118.398 22.52 118.158 23C117.625 24.0933 117.198 25.0667 116.878 25.92C116.585 26.7733 116.438 27.84 116.438 29.12C116.438 29.9467 116.518 30.5467 116.678 30.92C116.865 31.2933 117.118 31.48 117.438 31.48C117.865 31.48 118.358 31.24 118.918 30.76C119.478 30.2533 120.052 29.5867 120.638 28.76C121.225 27.9333 121.745 27.04 122.198 26.08C122.492 25.4667 122.718 25.16 122.878 25.16C122.985 25.16 123.038 25.2667 123.038 25.48C123.038 25.7733 122.918 26.2 122.678 26.76C122.465 27.2933 122.198 27.84 121.878 28.4C121.585 28.96 121.305 29.4 121.038 29.72C120.585 30.3067 120.065 30.8267 119.478 31.28C118.892 31.7333 118.265 31.96 117.598 31.96ZM125.481 37.4C125.214 37.4 124.934 37.2267 124.641 36.88C124.374 36.56 124.121 36.1067 123.881 35.52C123.481 34.56 123.201 33.5467 123.041 32.48C122.881 31.44 122.801 30.3867 122.801 29.32C122.801 28.1467 122.881 27 123.041 25.88C123.201 24.76 123.374 23.7467 123.561 22.84C123.694 22.2 123.854 21.52 124.041 20.8C124.228 20.08 124.401 19.5067 124.561 19.08C124.401 19.1067 124.148 19.2 123.801 19.36C123.454 19.52 123.094 19.68 122.721 19.84C122.374 20 122.068 20.08 121.801 20.08C121.401 20.08 121.201 19.8533 121.201 19.4C121.201 19.16 121.281 18.9467 121.441 18.76C121.628 18.5733 121.854 18.4267 122.121 18.32C122.654 18.08 123.241 17.9067 123.881 17.8C124.521 17.6667 124.948 17.5333 125.161 17.4L126.201 14.76C126.308 14.4933 126.494 14.0667 126.761 13.48C127.054 12.8667 127.388 12.2133 127.761 11.52C128.161 10.8267 128.548 10.2 128.921 9.64C129.214 9.21333 129.494 8.88 129.761 8.64C130.028 8.37333 130.321 8.24 130.641 8.24C131.121 8.24 131.361 8.42667 131.361 8.8C131.361 9.01333 131.268 9.33333 131.081 9.76C130.921 10.1867 130.614 10.7467 130.161 11.44C129.654 12.24 129.134 13.04 128.601 13.84C128.094 14.6133 127.654 15.4267 127.281 16.28C127.254 16.3867 127.188 16.56 127.081 16.8C127.001 17.0133 126.934 17.1467 126.881 17.2L127.681 17.08C127.894 17.0533 128.134 17.04 128.401 17.04C128.668 17.0133 128.961 17 129.281 17C129.734 17 130.161 17.0267 130.561 17.08C130.988 17.1067 131.334 17.1733 131.601 17.28C131.734 17.3333 131.854 17.4 131.961 17.48C132.094 17.5333 132.161 17.5867 132.161 17.64C132.161 17.7467 131.814 17.8 131.121 17.8C130.721 17.8 130.148 17.8667 129.401 18C128.681 18.1333 127.854 18.3467 126.921 18.64C126.468 18.7733 126.161 18.96 126.001 19.2C125.841 19.44 125.628 20.0133 125.361 20.92C124.961 22.36 124.641 23.7467 124.401 25.08C124.161 26.3867 123.974 27.72 123.841 29.08C123.814 29.3467 123.788 29.6267 123.761 29.92C123.761 30.2133 123.761 30.5333 123.761 30.88C123.761 31.7867 123.841 32.7333 124.001 33.72C124.188 34.7067 124.454 35.56 124.801 36.28C124.881 36.44 124.961 36.5867 125.041 36.72C125.148 36.8533 125.268 36.9467 125.401 37C125.588 37.08 125.681 37.1733 125.681 37.28C125.681 37.36 125.614 37.4 125.481 37.4ZM132.28 31.52C131.32 31.52 130.48 30.96 129.76 29.84C129.066 28.6933 128.72 26.8933 128.72 24.44C128.72 22.84 128.92 21.56 129.32 20.6C129.72 19.6133 130.213 18.8933 130.8 18.44C131.386 17.9867 131.946 17.76 132.48 17.76C133.013 17.76 133.466 17.9467 133.84 18.32C134.213 18.6667 134.4 19.1733 134.4 19.84C134.4 20.48 134.213 21.16 133.84 21.88C133.466 22.5733 133.013 23.2133 132.48 23.8C131.973 24.36 131.466 24.7333 130.96 24.92C130.853 24.9733 130.72 25 130.56 25C130.453 25 130.4 24.96 130.4 24.88C130.4 24.6667 130.613 24.4267 131.04 24.16C131.573 23.7867 132.08 23.2267 132.56 22.48C133.04 21.7067 133.28 21.0267 133.28 20.44C133.28 20.0933 133.2 19.8267 133.04 19.64C132.88 19.4267 132.693 19.32 132.48 19.32C132.08 19.32 131.64 19.64 131.16 20.28C130.706 20.8933 130.373 21.96 130.16 23.48C130.106 23.9067 130.053 24.32 130 24.72C129.973 25.0933 129.96 25.4667 129.96 25.84C129.96 27.3333 130.186 28.5067 130.64 29.36C131.093 30.1867 131.693 30.6 132.44 30.6C133.08 30.6 133.8 30.2267 134.6 29.48C135.4 28.7067 136.186 27.5067 136.96 25.88C137.146 25.4533 137.36 25.24 137.6 25.24C137.76 25.24 137.84 25.3467 137.84 25.56C137.84 25.7467 137.786 25.9467 137.68 26.16C136.986 27.8667 136.146 29.1867 135.16 30.12C134.173 31.0533 133.213 31.52 132.28 31.52ZM140.951 32.72C140.604 32.72 140.351 32.6 140.191 32.36C140.057 32.1467 139.991 31.9333 139.991 31.72C139.991 31.2933 140.177 30.8533 140.551 30.4C140.684 30.24 140.871 30.0267 141.111 29.76C141.351 29.4667 141.524 29.24 141.631 29.08C141.284 28.6 140.817 28.16 140.231 27.76C139.644 27.36 139.071 26.8533 138.511 26.24C138.004 25.68 137.577 25 137.231 24.2C136.884 23.3733 136.711 22.5867 136.711 21.84C136.711 20.96 136.911 20.12 137.311 19.32C137.711 18.52 138.204 17.8267 138.791 17.24C139.431 16.6 140.137 16.0933 140.911 15.72C141.684 15.32 142.484 15.12 143.311 15.12C143.871 15.12 144.417 15.2533 144.951 15.52C145.484 15.7867 145.751 16.2267 145.751 16.84C145.751 17.56 145.591 17.92 145.271 17.92C145.137 17.92 145.044 17.7867 144.991 17.52C144.964 17.3867 144.951 17.2533 144.951 17.12C144.951 16.96 144.951 16.8533 144.951 16.8C144.951 16.5333 144.831 16.3067 144.591 16.12C144.351 15.9067 144.084 15.8 143.791 15.8C143.177 15.8 142.497 16.04 141.751 16.52C141.004 17 140.377 17.56 139.871 18.2C139.364 18.8667 138.951 19.6267 138.631 20.48C138.311 21.3067 138.151 22.1067 138.151 22.88C138.151 23.84 138.364 24.6667 138.791 25.36C139.217 26.0533 139.724 26.6667 140.311 27.2C140.924 27.7333 141.471 28.2533 141.951 28.76C142.191 28.4667 142.444 28.1867 142.711 27.92C143.004 27.6533 143.271 27.44 143.511 27.28C143.724 27.1467 143.871 27.08 143.951 27.08C144.031 27.08 144.071 27.12 144.071 27.2C144.071 27.3333 143.951 27.4933 143.711 27.68C143.657 27.7333 143.497 27.8933 143.231 28.16C142.991 28.4 142.697 28.7067 142.351 29.08C142.564 29.32 142.737 29.5733 142.871 29.84C143.004 30.1067 143.071 30.4 143.071 30.72C143.071 31.1467 142.831 31.5867 142.351 32.04C141.871 32.4933 141.404 32.72 140.951 32.72ZM141.391 31.64C141.577 31.64 141.751 31.4667 141.911 31.12C142.097 30.8 142.191 30.48 142.191 30.16C142.191 30 142.164 29.8533 142.111 29.72C142.057 29.5867 142.017 29.5067 141.991 29.48C141.777 29.7467 141.577 30.04 141.391 30.36C141.231 30.6533 141.151 30.92 141.151 31.16C141.151 31.48 141.231 31.64 141.391 31.64Z" fill="black"/>
</svg>
