<?xml version="1.0" encoding="UTF-8"?>
<svg id="Layer_3" data-name="Layer 3" xmlns="http://www.w3.org/2000/svg" viewBox="0 0 99.13 94.37">
  <g>
    <path d="M13.26,91.62c2.84-2.76,5.69-5.53,8.53-8.29,6.8-6.61,13.59-13.21,20.39-19.82,8.22-7.99,16.44-15.98,24.66-23.97l21.4-20.8,7.05-6.85c1.11-1.07,2.3-2.1,3.34-3.24.04-.05.1-.09.14-.14.74-.72.32-1.73-.55-2.06-1.06-.4-2.3.07-3.07.82-2.84,2.76-5.69,5.53-8.53,8.29-6.8,6.61-13.59,13.21-20.39,19.82-8.22,7.99-16.44,15.98-24.66,23.97-7.13,6.93-14.27,13.87-21.4,20.8-2.35,2.28-4.7,4.57-7.05,6.85-1.11,1.07-2.3,2.1-3.34,3.24-.04.05-.1.09-.14.14-.74.72-.32,1.73.55,2.06,1.06.4,2.3-.07,3.07-.82h0Z"/>
    <path d="M34.41,69.81c3.28,4.77,7.79,8.94,13.71,9.81s11.55-1.39,16.25-4.59c5.63-3.83,10.15-9.25,13.97-14.83,4.77-6.96,8.63-14.55,11.83-22.35,4-9.75,7-19.92,8.93-30.28.26-1.39-4.08-.65-4.32.64-3.11,16.7-8.85,33.37-17.74,47.91-3.5,5.73-7.57,11.36-12.67,15.79-1.92,1.67-4.29,3.38-6.39,4.37-1.27.6-1.86.8-3.09,1.09-.01,0-.37.08-.14.03.26-.05-.19.03-.24.04-.25.04-.5.08-.75.11-.48.06-.23.03-.52.05-.32.02-.64.02-.96.02-5.81-.07-10.63-4.82-13.81-9.44-.7-1.02-4.92.36-4.06,1.61h0Z"/>
  </g>
  <path d="M68.81,68.08c6.49,7.63,12.97,15.25,19.46,22.88l2.71,3.19c.67.79,4.73-.72,4.1-1.47-6.49-7.63-12.97-15.25-19.46-22.88l-2.71-3.19c-.67-.79-4.73.72-4.1,1.47h0Z"/>
  <g>
    <path d="M12.61,13.17c3.85,3.82,7.69,7.63,11.54,11.45,6.14,6.09,12.28,12.18,18.42,18.28l4.27,4.23c1.06,1.05,5.17-.57,4.04-1.69-3.85-3.82-7.69-7.63-11.54-11.45L20.91,15.71c-1.42-1.41-2.84-2.82-4.27-4.23-1.06-1.05-5.17.57-4.04,1.69h0Z"/>
    <path d="M26.97,2.95c3.04,1.82,5.9,4.14,8.39,6.64,4.24,4.25,8.19,9.97,7.41,16.27-.48,3.85-2.75,7.19-5.48,9.84-1.4,1.35-2.98,2.56-4.73,3.42-1.33.65-2.89,1.11-4.21,1.23-2.96.27-5.93-.56-8.72-2.04s-5.17-3.43-7.38-5.56c-3.04-2.93-5.85-6.32-8.05-9.94-1.07-1.75-5.19-.05-3.97,1.95,2.05,3.35,4.62,6.47,7.37,9.27,4.93,5.01,11.16,9.5,18.45,9.69,4.1.11,8.01-1.3,11.36-3.62,3.71-2.57,7.1-6.34,8.76-10.58,2.72-6.96-.07-14.04-4.63-19.48-3.14-3.74-7.03-7.16-11.23-9.67-.96-.58-2.24-.46-3.12.24-.69.54-1.17,1.77-.21,2.35h0Z"/>
  </g>
</svg>